<?xml version="1.0" standalone="no"?>
<!DOCTYPE svg PUBLIC "-//W3C//DTD SVG 20010904//EN"
 "http://www.w3.org/TR/2001/REC-SVG-20010904/DTD/svg10.dtd">
<svg version="1.0" xmlns="http://www.w3.org/2000/svg"
 width="4448.000000pt" height="4448.000000pt" viewBox="0 0 4448.000000 4448.000000"
 preserveAspectRatio="xMidYMid meet">
<metadata>
Created by potrace 1.11, written by Peter Selinger 2001-2013
</metadata>
<g transform="translate(0.000000,4448.000000) scale(0.100000,-0.100000)"
fill="#000000" stroke="none">
<path d="M43718 24933 c7 -3 16 -2 19 1 4 3 -2 6 -13 5 -11 0 -14 -3 -6 -6z"/>
<path d="M43487 24923 c-1 -1 -43 -4 -92 -8 -50 -3 -114 -8 -142 -10 -29 -2
-88 -7 -130 -10 -43 -4 -107 -8 -143 -10 -36 -2 -65 -4 -65 -5 0 -1 -20 -3
-45 -5 -79 -6 -260 -22 -335 -30 -27 -3 -79 -7 -115 -10 -36 -3 -83 -8 -105
-11 -22 -3 -62 -7 -90 -9 -27 -2 -64 -6 -81 -9 -17 -3 -62 -8 -100 -11 -38 -3
-80 -7 -94 -10 -14 -2 -54 -7 -90 -10 -36 -4 -76 -8 -90 -10 -29 -5 -163 -21
-235 -30 -27 -3 -63 -8 -80 -10 -16 -3 -50 -7 -75 -10 -25 -3 -54 -7 -65 -9
-11 -2 -49 -7 -85 -11 -36 -4 -74 -9 -85 -11 -23 -5 -50 -9 -160 -24 -44 -6
-91 -13 -105 -16 -14 -2 -47 -7 -75 -10 -27 -3 -68 -10 -90 -14 -22 -5 -62
-12 -90 -15 -27 -4 -61 -8 -75 -11 -38 -6 -141 -23 -175 -28 -16 -3 -41 -7
-55 -10 -14 -3 -41 -7 -61 -10 -20 -3 -42 -7 -50 -10 -8 -3 -32 -7 -54 -10
-22 -3 -65 -10 -95 -16 -60 -12 -98 -18 -145 -24 -16 -3 -52 -9 -80 -15 -27
-6 -61 -13 -75 -15 -14 -3 -70 -14 -125 -25 -55 -11 -113 -22 -130 -25 -48 -9
-78 -15 -105 -22 -14 -3 -36 -7 -50 -8 -14 -1 -30 -5 -35 -8 -6 -3 -28 -9 -50
-13 -22 -4 -49 -9 -60 -11 -22 -4 -24 -5 -135 -29 -41 -9 -83 -18 -93 -20 -10
-2 -26 -6 -35 -9 -9 -3 -33 -8 -52 -12 -45 -8 -65 -12 -65 -14 0 -1 -11 -3
-24 -6 -35 -6 -217 -49 -381 -89 -80 -20 -156 -38 -170 -41 -14 -3 -32 -7 -40
-9 -8 -2 -15 -4 -15 -5 0 -1 -9 -3 -20 -5 -11 -2 -54 -13 -95 -24 -99 -28
-300 -82 -322 -87 -25 -6 -42 -10 -128 -34 -41 -11 -86 -23 -99 -26 -13 -3
-31 -9 -40 -13 -9 -5 -19 -9 -24 -9 -16 -1 -72 -15 -82 -20 -5 -4 -15 -7 -22
-8 -7 -1 -44 -12 -82 -24 -39 -12 -72 -21 -73 -21 -2 1 -42 -12 -90 -28 -49
-16 -88 -28 -88 -25 0 2 -17 -3 -37 -10 -21 -8 -112 -38 -203 -66 -91 -28
-172 -54 -180 -57 -8 -3 -19 -7 -25 -8 -16 -4 -198 -65 -215 -72 -8 -3 -19 -7
-25 -8 -15 -4 -273 -93 -330 -115 -27 -10 -106 -39 -175 -63 -69 -25 -136 -50
-150 -55 -30 -12 -63 -25 -70 -26 -4 -1 -120 -44 -170 -63 -8 -4 -18 -5 -22
-5 -5 1 -8 -2 -8 -8 0 -5 -5 -10 -11 -10 -13 0 -185 -65 -211 -80 -10 -6 -22
-10 -28 -10 -6 0 -29 -9 -53 -19 -23 -11 -114 -49 -202 -86 -88 -36 -178 -74
-200 -84 -22 -10 -69 -31 -105 -46 -58 -25 -273 -121 -455 -205 -258 -118
-738 -358 -1010 -505 -91 -49 -217 -119 -240 -132 -11 -7 -27 -16 -35 -20 -34
-16 -393 -225 -494 -286 -59 -37 -110 -67 -113 -67 -2 0 -16 -8 -31 -19 -51
-35 -253 -161 -258 -161 -3 0 -10 -5 -17 -10 -11 -10 -448 -303 -484 -325 -20
-12 -51 -36 -68 -52 -8 -7 -16 -13 -19 -13 -12 0 -419 -299 -424 -312 -2 -4
-8 -8 -14 -8 -5 0 -15 -6 -23 -12 -7 -7 -24 -21 -37 -31 -13 -10 -48 -37 -78
-60 -30 -23 -57 -44 -60 -47 -3 -3 -59 -48 -125 -100 -66 -52 -127 -102 -136
-110 -9 -8 -36 -31 -60 -50 -24 -19 -56 -46 -70 -60 -15 -14 -44 -38 -64 -54
-20 -16 -49 -41 -64 -55 -16 -14 -45 -40 -66 -58 -118 -101 -355 -324 -355
-335 0 -5 18 -36 40 -69 22 -33 40 -63 40 -65 0 -3 9 -14 20 -26 19 -21 20
-21 705 -22 377 -1 692 1 700 4 7 3 73 62 147 132 187 178 227 215 303 283 38
33 80 71 95 85 45 43 182 162 250 220 47 39 104 87 123 104 12 10 42 35 67 55
25 20 50 41 56 46 45 40 375 301 424 335 19 13 41 30 48 37 18 17 312 234 410
301 42 30 79 57 82 60 3 4 13 12 22 17 13 8 172 115 408 275 37 25 142 93 162
105 10 6 83 52 163 103 80 50 149 92 154 92 4 0 16 9 26 20 10 11 21 20 25 20
4 0 61 32 126 71 123 74 413 241 519 299 33 18 80 44 105 57 25 14 68 37 95
51 28 15 52 29 55 32 10 10 684 350 792 399 26 11 108 50 183 86 75 36 142 65
148 65 6 0 18 6 26 13 9 7 43 24 76 37 61 24 196 84 227 101 10 5 25 9 33 9 8
0 15 5 15 10 0 6 11 10 24 10 13 0 29 7 36 15 7 8 18 15 24 15 7 0 79 28 162
63 82 35 228 94 324 132 157 61 193 75 265 105 11 4 43 15 70 25 28 9 59 21
70 26 11 4 47 18 80 30 33 11 74 26 90 33 17 8 73 28 125 45 52 18 104 36 115
41 23 9 178 64 185 65 12 2 56 17 75 25 42 19 696 225 810 256 6 2 96 28 200
59 105 30 199 57 210 59 11 2 31 9 45 14 14 5 28 10 33 11 4 0 8 1 10 2 4 1
31 8 52 12 11 3 40 11 65 18 54 15 38 11 185 49 66 17 129 34 140 36 11 3 27
7 35 9 8 1 22 5 30 8 13 5 83 21 131 31 8 2 21 6 29 9 8 3 38 10 65 16 85 19
213 49 230 55 9 3 58 13 95 20 8 2 26 6 40 9 14 4 36 9 50 12 14 2 68 14 120
25 52 11 104 22 115 25 11 2 21 4 23 6 3 2 10 4 67 14 28 5 52 9 55 10 3 1 23
5 45 10 22 4 47 9 55 11 153 31 273 55 305 59 22 4 48 8 57 11 10 3 30 7 45
10 16 2 40 7 55 10 15 3 41 7 58 9 18 3 39 6 49 9 9 3 34 8 56 11 23 3 52 7
65 10 14 3 39 7 55 10 17 3 44 7 60 10 17 3 46 8 65 11 19 3 73 11 120 19 47
8 103 17 125 20 23 3 50 7 60 9 11 2 45 7 75 11 30 4 62 9 70 10 8 2 35 5 60
9 122 15 146 18 160 21 8 1 40 6 70 10 30 3 69 9 85 12 29 5 53 7 155 18 97
10 146 15 170 20 14 2 58 7 99 11 41 3 83 7 92 9 10 2 64 7 121 10 57 4 105 9
108 12 3 2 -44 3 -103 1 -60 -2 -109 -4 -110 -5z"/>
<path d="M13740 23013 c0 -5 -22 -33 -48 -64 -43 -51 -69 -82 -172 -205 -64
-76 -74 -88 -158 -189 -45 -55 -93 -111 -105 -125 -54 -61 -62 -40 100 -272
82 -117 196 -280 254 -361 57 -82 109 -157 115 -168 6 -11 21 -31 33 -45 11
-13 21 -26 21 -29 0 -3 12 -23 28 -44 15 -21 34 -49 42 -61 8 -12 29 -41 46
-64 16 -22 55 -77 84 -121 30 -44 57 -82 60 -85 3 -3 18 -24 33 -47 l29 -42
-27 -58 -26 -59 -986 0 -985 1 -37 -44 c-20 -24 -41 -49 -46 -55 -6 -6 -28
-33 -50 -61 -22 -27 -42 -52 -45 -55 -3 -3 -36 -43 -74 -90 -38 -47 -74 -89
-80 -95 -6 -5 -24 -28 -41 -50 -16 -21 -36 -46 -45 -55 -33 -33 -82 -101 -77
-106 3 -3 661 -6 1464 -5 l1458 0 42 -25 c24 -14 46 -24 49 -23 4 0 10 -3 13
-8 3 -5 28 -20 55 -33 26 -14 55 -36 64 -50 9 -14 22 -29 29 -33 7 -4 13 -12
13 -17 0 -9 13 -26 45 -64 6 -6 26 -34 44 -61 19 -28 38 -52 41 -55 3 -3 23
-29 44 -59 21 -30 43 -59 47 -65 5 -6 46 -60 91 -121 44 -60 83 -112 85 -114
4 -6 1172 -5 1178 1 3 2 -17 32 -44 65 -27 34 -47 64 -44 67 4 3 2 6 -4 6 -6
0 -29 26 -53 58 -135 180 -276 364 -295 386 -6 6 -21 27 -35 46 -13 19 -30 42
-37 50 -12 14 -342 444 -532 694 -42 56 -79 103 -82 106 -3 3 -25 32 -49 65
-42 57 -237 313 -264 345 -6 9 -32 42 -56 75 -25 33 -49 65 -55 71 -9 10 -78
100 -402 527 -51 67 -96 127 -100 132 -5 6 -19 24 -33 41 -14 17 -34 44 -45
59 -11 16 -25 33 -30 39 -6 6 -22 27 -35 46 -13 19 -27 37 -30 40 -3 3 -69 88
-146 190 -76 102 -147 194 -157 205 -10 11 -26 32 -35 48 -15 25 -42 37 -42
20z"/>
<path d="M1788 23005 c-2 -2 -190 -6 -418 -9 -228 -2 -433 -7 -455 -10 -22 -3
-63 -8 -91 -11 -29 -3 -62 -8 -75 -11 -13 -3 -37 -8 -54 -10 -58 -10 -181 -56
-240 -89 -91 -51 -152 -115 -197 -205 -39 -78 -59 -150 -75 -265 -8 -61 -10
-705 -2 -750 22 -130 32 -168 55 -225 38 -94 80 -150 164 -221 43 -36 180 -99
250 -114 8 -2 36 -8 61 -14 59 -13 167 -28 279 -37 36 -3 735 -6 1553 -7
l1488 -2 38 -41 37 -41 0 -307 c-1 -267 -3 -309 -17 -319 -8 -7 -23 -24 -33
-38 l-17 -26 -1974 0 -1974 0 -45 -29 c-43 -27 -46 -31 -41 -62 24 -155 89
-270 207 -368 66 -56 242 -119 388 -139 19 -3 51 -7 70 -10 19 -3 82 -8 140
-12 137 -9 3230 -9 3380 0 123 7 149 10 295 33 22 3 80 19 129 35 197 65 320
179 374 349 38 121 46 177 47 332 0 58 3 104 7 102 4 -3 4 5 0 17 -5 12 -5 41
-2 65 4 24 4 44 1 44 -8 0 -5 125 3 139 4 6 3 11 -2 11 -6 0 -7 14 -2 34 4 19
6 37 3 39 -2 3 -6 58 -9 123 -2 66 -5 126 -7 134 -2 8 -7 38 -12 65 -10 63
-55 174 -92 228 -97 144 -293 240 -553 271 -19 3 -35 5 -35 6 0 3 -306 22
-340 21 -18 -1 -119 -1 -243 -1 -68 0 -128 -2 -133 -5 -5 -4 -9 -3 -9 2 0 4
-21 7 -47 5 -27 -2 -55 -3 -63 -3 -43 2 -169 2 -176 0 -5 -1 -13 0 -19 1 -20
4 -158 -1 -166 -6 -5 -3 -9 -2 -9 3 0 4 -33 7 -72 5 -40 -2 -86 -3 -103 -3
-162 2 -288 0 -296 -4 -5 -4 -9 -3 -9 2 0 8 -108 7 -142 -1 -10 -2 -18 -1 -18
2 0 4 -33 6 -72 4 -40 -2 -86 -3 -103 -3 -162 2 -288 0 -296 -4 -5 -4 -9 -3
-9 2 0 4 -21 7 -47 5 -27 -2 -55 -3 -63 -3 -43 2 -169 2 -176 0 -5 -1 -13 0
-19 1 -20 4 -158 -1 -166 -6 -5 -3 -9 -2 -9 3 0 4 -33 7 -72 5 -40 -2 -86 -3
-103 -3 -16 1 -64 1 -105 1 l-75 0 -41 45 -40 45 0 290 1 289 35 30 c19 17 44
31 55 31 11 0 844 1 1852 1 l1831 0 23 57 c13 31 22 63 22 72 -4 51 -125 207
-207 265 -59 43 -214 117 -241 116 -2 0 -23 6 -46 14 -23 9 -56 17 -73 20 -53
9 -150 25 -181 31 -25 5 -614 16 -750 14 -22 0 -51 0 -65 1 -14 0 -29 1 -35 0
-5 0 -37 0 -70 0 -33 0 -69 0 -80 0 -17 -1 -54 0 -90 0 -26 1 -933 0 -950 0
-11 -1 -33 -1 -50 0 -44 0 -45 0 -112 -1 -34 -1 -66 0 -70 3 -4 2 -17 1 -28
-3 -11 -4 -32 -4 -47 1 -14 4 -28 6 -30 4z"/>
<path d="M30078 23000 l-78 -5 -35 -69 c-35 -68 -43 -96 -27 -96 5 0 17 -8 28
-17 11 -10 27 -22 36 -28 48 -30 334 -239 336 -246 2 -5 8 -9 13 -9 8 0 60
-35 114 -78 15 -11 143 -103 200 -144 28 -19 145 -103 260 -186 116 -84 221
-160 234 -169 14 -10 43 -31 66 -48 22 -16 63 -46 90 -64 28 -19 52 -37 55
-40 3 -4 34 -26 70 -50 36 -25 67 -48 70 -51 17 -22 129 -87 136 -80 29 28
440 246 796 423 126 61 228 117 228 123 0 6 -18 23 -40 38 -22 15 -48 33 -58
41 -59 48 -194 145 -202 145 -6 0 -10 3 -10 8 0 4 -23 22 -50 41 -28 19 -50
38 -50 43 0 4 -6 8 -12 8 -7 0 -29 14 -48 30 -19 16 -38 30 -41 30 -3 0 -17 9
-30 21 -13 12 -44 35 -69 52 -25 17 -47 34 -50 37 -3 3 -27 22 -55 40 -27 19
-58 41 -68 50 -10 8 -30 25 -44 37 -14 12 -38 27 -52 35 -14 7 -30 18 -36 24
-5 7 -54 44 -109 83 -92 66 -126 80 -171 71 -12 -2 -13 -2 -130 -1 -49 0 -97
0 -105 0 -8 -1 -33 0 -55 0 -22 1 -47 1 -55 0 -27 -1 -204 0 -240 2 -19 0 -42
1 -50 0 -8 0 -62 0 -120 0 -58 0 -112 0 -120 0 -8 -1 -28 -1 -45 0 -38 0 -38
0 -110 0 -57 0 -75 0 -110 -1 -8 -1 -40 0 -71 0 -31 1 -58 -1 -61 -4 -3 -2
-15 -2 -27 2 -11 4 -56 5 -98 2z"/>
<path d="M6509 22937 c-35 -27 -66 -51 -68 -53 -2 -2 -4 -733 -4 -1625 0
-1109 4 -1623 11 -1628 7 -4 950 -6 1007 -2 7 1 10 212 10 612 l-1 611 48 46
48 46 1493 2 c820 1 1506 5 1522 7 17 3 53 8 80 11 28 4 61 9 75 12 14 3 36 8
50 10 50 9 137 36 195 62 201 87 304 226 332 447 7 57 7 914 0 960 -10 69 -28
127 -60 195 -26 55 -138 168 -192 195 -22 11 -46 24 -54 29 -7 6 -18 11 -25
12 -6 2 -34 11 -62 22 -28 11 -69 23 -90 27 -21 5 -41 9 -44 10 -45 11 -133
24 -206 31 -32 4 -946 7 -2030 9 l-1972 2 -63 -50z m3559 -552 c143 -29 210
-77 230 -163 9 -39 8 -427 -1 -491 -19 -125 -87 -174 -277 -197 -30 -4 -593
-8 -1250 -8 l-1195 -1 -30 27 c-16 14 -40 34 -53 45 l-22 18 -1 344 -1 343 47
48 46 47 1237 -2 c680 -2 1252 -6 1270 -10z"/>
<path d="M18449 22986 c-2 -2 -47 -6 -99 -10 -126 -8 -187 -15 -235 -27 -22
-5 -51 -11 -65 -14 -14 -2 -38 -9 -55 -15 -16 -6 -31 -11 -32 -12 -32 -2 -152
-61 -192 -93 -52 -44 -96 -96 -128 -155 -21 -36 -64 -154 -62 -168 1 -4 0 -9
-1 -12 -4 -12 -10 -49 -17 -105 -9 -75 -8 -2117 1 -2165 3 -19 9 -50 12 -68
16 -100 73 -225 132 -288 132 -142 316 -205 677 -230 145 -10 3161 -10 3290 0
158 12 191 17 333 50 40 9 155 57 197 81 44 26 115 90 145 131 46 62 85 166
96 257 3 29 7 62 9 75 3 15 -2 22 -13 23 -9 0 -853 1 -1875 1 l-1857 1 -53 53
-52 52 0 981 c0 540 3 981 6 981 4 0 22 13 40 30 19 16 45 33 59 38 14 4 869
8 1901 8 1872 -1 1877 -1 1873 19 -2 11 -7 36 -10 55 -8 47 -23 98 -40 137 -8
17 -14 34 -14 38 0 21 -95 137 -142 172 -105 80 -280 141 -458 159 -25 2 -63
7 -85 11 -42 6 -3279 16 -3286 9z"/>
<path d="M23927 22975 c-3 -9 -1 -585 2 -610 2 -14 4661 -12 4669 2 4 6 7 148
7 315 l-1 303 -2337 0 c-1586 0 -2338 -3 -2340 -10z"/>
<path d="M23932 21855 c-11 -17 -8 -2225 3 -2226 6 0 1047 -1 2313 -2 1505 -1
2306 1 2310 8 11 18 8 548 -4 559 -7 8 -519 11 -1730 10 l-1719 -2 -62 37
c-49 28 -63 41 -64 61 0 14 -1 221 -1 459 l-1 435 53 45 53 46 991 1 991 0 0
288 0 289 -1563 1 c-1033 1 -1566 -2 -1570 -9z"/>
<path d="M33775 21350 c-22 -17 -51 -39 -65 -50 -14 -10 -122 -92 -240 -181
-202 -152 -439 -338 -468 -366 -7 -7 -21 -18 -32 -26 -10 -7 -20 -18 -22 -24
-3 -10 384 -293 401 -293 5 0 11 -4 13 -8 3 -8 186 -143 226 -167 9 -5 22 -15
29 -22 8 -7 27 -20 43 -30 17 -9 30 -21 30 -25 0 -4 4 -8 9 -8 5 0 48 -28 96
-62 47 -35 94 -67 102 -73 9 -5 24 -16 32 -22 9 -7 95 -69 191 -137 96 -68
208 -148 248 -177 l74 -52 769 -1 c760 -1 770 -1 782 19 7 11 24 44 37 74 l25
54 -25 16 c-13 9 -61 43 -106 76 -45 33 -92 67 -104 75 -12 8 -44 31 -70 50
-26 19 -58 42 -70 50 -45 31 -126 91 -148 110 -13 11 -27 20 -31 20 -5 0 -17
8 -29 18 -11 9 -30 24 -42 32 -12 8 -67 48 -123 88 -128 92 -120 86 -255 185
-63 45 -124 89 -137 97 -13 8 -113 79 -222 158 -109 79 -270 195 -358 258 -88
63 -168 121 -178 129 -9 8 -21 15 -26 15 -5 0 -11 4 -13 8 -1 5 -34 30 -73 57
-124 86 -210 149 -213 157 -6 13 -15 9 -57 -22z"/>
</g>
</svg>
